<?xml version="1.0" encoding="UTF-8"?>
<svg width="216px" height="28px" viewBox="0 0 216 28" version="1.1" xmlns="http://www.w3.org/2000/svg" xmlns:xlink="http://www.w3.org/1999/xlink">
    <!-- Generator: Sketch 51.3 (57544) - http://www.bohemiancoding.com/sketch -->
    <title>Group 8 Copy</title>
    <desc>Created with Sketch.</desc>
    <defs>
        <polygon id="path-1" points="0 0 152 0 152 28 0 28"></polygon>
    </defs>
    <g id="Page-1" stroke="none" stroke-width="1" fill="none" fill-rule="evenodd">
        <g id="Desktop-HD-Copy-5" transform="translate(-560.000000, -54.000000)">
            <g id="Group-8-Copy" transform="translate(560.000000, 54.000000)">
                <g id="Group-3">
                    <g>
                        <mask id="mask-2" fill="white">
                            <use xlink:href="#path-1"></use>
                        </mask>
                        <g id="Clip-2"></g>
                        <path d="M150.931215,28 C144.915316,20.999759 137.71159,13.4914437 130.943703,6.37422672 C130.904022,7.82132241 130.824986,10.1675906 130.824986,14.3128465 C130.824986,17.6759058 130.983059,25.9272114 131.181139,27.4916044 C130.745624,27.3743071 130.270753,27.2958946 129.795556,27.2958946 C129.320686,27.2958946 128.845815,27.3743071 128.331263,27.4916044 C128.64806,25.6537318 129.162612,15.6423235 129.162612,10.4805977 C129.162612,5.55314534 129.162612,1.75978147 129.043894,0 L129.677164,0 C136.128578,6.92182855 144.875635,16.3464289 149.704357,21.1562626 C149.704357,14.1563429 149.704357,6.5307303 149.387559,0.508395597 C149.823075,0.625692938 150.297946,0.703784044 150.733461,0.703784044 C151.168651,0.703784044 151.564485,0.625692938 152,0.508395597 C151.762565,2.81545754 151.36673,10.5586888 151.36673,13.6087411 C151.36673,17.5978147 151.445767,26.2402185 151.485448,28 L150.931215,28 Z M112.468948,10.5975737 C112.468948,7.23451434 112.310874,3.8325701 112.152476,0.508395597 C114.527156,0.625692938 116.86248,0.703784044 119.237159,0.703784044 C121.611839,0.703784044 123.947163,0.625692938 126.282487,0.508395597 C126.203125,0.899493854 126.16377,1.29059211 126.16377,1.68169037 C126.16377,2.07246726 126.203125,2.46356552 126.282487,2.85466377 C122.957741,2.62006909 121.018251,2.34626818 115.873057,2.34626818 C115.833376,4.02795854 115.714658,5.39664176 115.714658,7.31292681 C115.714658,9.34618784 115.754014,11.4970676 115.754014,12.4749739 C120.424662,12.4749739 123.036777,12.2792641 125.372101,12.0838756 C125.293065,12.4749739 125.253384,12.904957 125.253384,13.2960553 C125.253384,13.6871535 125.293065,14.0782518 125.372101,14.46935 C122.641268,14.1955491 117.654148,14.117458 115.754014,14.117458 C115.714658,15.0558367 115.714658,16.0334217 115.714658,19.7875793 C115.714658,22.7598618 115.754014,24.6758255 115.793695,25.6537318 C119.316521,25.6537318 123.986844,25.6145256 126.480242,25.1450149 C126.401205,25.4972282 126.361524,26.0056238 126.361524,26.3575159 C126.361524,26.7094079 126.401205,27.1397124 126.480242,27.4916044 C124.144918,27.3743071 121.770238,27.2958946 119.355877,27.2958946 C116.941516,27.2958946 114.566836,27.3743071 112.152476,27.4916044 C112.310874,24.0893388 112.468948,20.6870732 112.468948,17.3240138 L112.468948,10.5975737 Z M96.2901609,10.5975737 C96.2901609,7.23451434 96.1320874,3.8325701 95.9736887,0.508395597 C98.3483685,0.625692938 100.683693,0.703784044 103.058372,0.703784044 C105.433052,0.703784044 107.768376,0.625692938 110.103375,0.508395597 C110.024338,0.899493854 109.984983,1.29059211 109.984983,1.68169037 C109.984983,2.07246726 110.024338,2.46356552 110.103375,2.85466377 C106.778953,2.62006909 104.839464,2.34626818 99.6939445,2.34626818 C99.6545888,4.02795854 99.535871,5.39664176 99.535871,7.31292681 C99.535871,9.34618784 99.5752268,11.4970676 99.5752268,12.4749739 C104.245875,12.4749739 106.85799,12.2792641 109.193314,12.0838756 C109.114278,12.4749739 109.074597,12.904957 109.074597,13.2960553 C109.074597,13.6871535 109.114278,14.0782518 109.193314,14.46935 C106.462156,14.1955491 101.475361,14.117458 99.5752268,14.117458 C99.535871,15.0558367 99.535871,16.0334217 99.535871,19.7875793 C99.535871,22.7598618 99.5752268,24.6758255 99.6149078,25.6537318 C103.137409,25.6537318 107.808057,25.6145256 110.301455,25.1450149 C110.222418,25.4972282 110.182737,26.0056238 110.182737,26.3575159 C110.182737,26.7094079 110.222418,27.1397124 110.301455,27.4916044 C107.966131,27.3743071 105.591451,27.2958946 103.17709,27.2958946 C100.762729,27.2958946 98.3880495,27.3743071 95.9736887,27.4916044 C96.1320874,24.0893388 96.2901609,20.6870732 96.2901609,17.3240138 L96.2901609,10.5975737 Z M56.2338234,0.508395597 C56.9067741,0.625692938 57.5397184,0.703784044 58.2129943,0.703784044 C58.8856197,0.703784044 59.5192146,0.625692938 60.1915147,0.508395597 C62.2103666,8.44701535 63.8727401,13.765566 67.0390883,23.6593557 L67.118125,23.6593557 C68.543063,19.3572748 73.6885821,4.53635414 74.6780049,0.508395597 C75.1131948,0.625692938 75.54871,0.703784044 75.9842252,0.703784044 C76.4194151,0.703784044 76.8549303,0.625692938 77.2901202,0.508395597 C78.4776227,4.73174259 83.4647431,19.5921909 84.8500001,23.6593557 L84.9290368,23.6593557 C86.1165394,20.1786776 91.2617332,3.9106612 92.0137206,0.508395597 C92.4889168,0.625692938 92.9241067,0.703784044 93.3989776,0.703784044 C93.8738485,0.703784044 94.3093637,0.625692938 94.7842346,0.508395597 C93.2409041,4.18446212 86.710128,23.3463485 85.324871,27.4916044 C84.8896811,27.3743071 84.4144849,27.2958946 83.979295,27.2958946 C83.5437798,27.2958946 83.0689089,27.3743071 82.6333937,27.4916044 C80.3380759,20.1786776 77.9630708,12.8268659 75.3506303,5.08395597 L75.2719188,5.08395597 C74.0050543,8.68161003 70.0073567,20.1786776 67.5536402,27.4916044 C67.078444,27.3743071 66.6432541,27.2958946 66.1687084,27.2958946 C65.6935123,27.2958946 65.2576718,27.3743071 64.7831262,27.4916044 C63.4769059,23.2290512 57.7771539,4.65365148 56.2338234,0.508395597 Z M43.4210906,10.6367799 C43.4210906,7.93861975 43.3814096,5.24013819 43.3023729,2.54197799 C40.5715398,2.54197799 37.0487132,2.69848156 34.8321069,2.97196112 C34.9511498,2.58118422 35.0301866,2.15087973 35.0301866,1.72057524 C35.0301866,1.32979834 34.9511498,0.938700088 34.8321069,0.508395597 C38.2362158,0.625692938 41.6399994,0.703784044 45.043783,0.703784044 C48.4475667,0.703784044 51.8513503,0.625692938 55.2554592,0.508395597 C55.1364163,0.938700088 55.0573795,1.32979834 55.0573795,1.75978147 C55.0573795,2.15087973 55.1364163,2.58118422 55.2554592,2.97196112 C53.0388529,2.69848156 49.5160263,2.54197799 46.7851932,2.54197799 C46.7064818,5.24013819 46.6664755,7.93861975 46.6664755,10.6367799 L46.6664755,17.3632201 C46.6664755,20.7262794 46.8248742,24.128545 46.983273,27.4916044 C46.3103223,27.3743071 45.6770527,27.2958946 45.043783,27.2958946 C44.4105134,27.2958946 43.777569,27.3743071 43.1042931,27.4916044 C43.2626919,24.128545 43.4210906,20.7262794 43.4210906,17.3632201 L43.4210906,10.6367799 Z M19.508738,10.5975737 C19.508738,7.23451434 19.3503393,3.8325701 19.1922658,0.508395597 C21.5669456,0.625692938 23.9019445,0.703784044 26.2769495,0.703784044 C28.6513041,0.703784044 30.9866282,0.625692938 33.3219523,0.508395597 C33.2429156,0.899493854 33.2032346,1.29059211 33.2032346,1.68169037 C33.2032346,2.07246726 33.2429156,2.46356552 33.3219523,2.85466377 C29.9975306,2.62006909 28.0577155,2.34626818 22.9125216,2.34626818 C22.8731659,4.02795854 22.7541229,5.39664176 22.7541229,7.31292681 C22.7541229,9.34618784 22.7934787,11.4970676 22.7934787,12.4749739 C27.4641268,12.4749739 30.0765674,12.2792641 32.4115662,12.0838756 C32.3325295,12.4749739 32.2928485,12.904957 32.2928485,13.2960553 C32.2928485,13.6871535 32.3325295,14.0782518 32.4115662,14.46935 C29.6804079,14.1955491 24.6936128,14.117458 22.7934787,14.117458 C22.7541229,15.0558367 22.7541229,16.0334217 22.7541229,19.7875793 C22.7541229,22.7598618 22.7934787,24.6758255 22.8334849,25.6537318 C26.3563115,25.6537318 31.0263092,25.6145256 33.5197068,25.1450149 C33.44067,25.4972282 33.400989,26.0056238 33.400989,26.3575159 C33.400989,26.7094079 33.44067,27.1397124 33.5197068,27.4916044 C31.1847079,27.3743071 28.8100281,27.2958946 26.3956673,27.2958946 C23.9813065,27.2958946 21.6066266,27.3743071 19.1922658,27.4916044 C19.3503393,24.0893388 19.508738,20.6870732 19.508738,17.3240138 L19.508738,10.5975737 Z M3.56218237,17.9497068 C3.56218237,20.5697758 3.72025584,23.2290512 3.79961783,25.8491203 C4.78904065,25.9664176 6.25333439,26.0445087 7.67859764,26.0445087 C11.082056,26.0445087 14.0506498,23.6982405 14.0506498,19.4748935 C14.0506498,15.0169519 10.6075104,13.9609544 5.34359881,13.9609544 L3.56218237,13.9609544 L3.56218237,17.9497068 Z M5.69942674,12.5141801 C9.42000783,12.5141801 13.2589814,11.223588 13.2589814,6.88262232 C13.2589814,2.65927533 9.81584201,1.95516992 6.80756729,1.95516992 C5.46199128,1.95516992 4.55193045,2.03358239 3.79961783,2.15087973 C3.72025584,4.61444525 3.56218237,7.117217 3.56218237,9.58110388 L3.56218237,12.5141801 L5.69942674,12.5141801 Z M0.316797446,10.5975737 C0.316797446,7.23451434 0.158073469,3.8325701 0,0.508395597 C1.385257,0.625692938 2.80986975,0.703784044 4.19512675,0.703784044 C5.58070901,0.703784044 7.00564701,0.508395597 8.39090401,0.508395597 C12.9028282,0.508395597 16.742127,1.72057524 16.742127,6.13963204 C16.742127,9.97220214 14.0506498,12.1230819 10.0926332,12.9833695 L10.0926332,13.0614606 C14.8026371,13.2960553 17.6921941,15.1731341 17.6921941,19.6313971 C17.6921941,25.4191371 12.2695586,27.4916044 7.67859764,27.4916044 C6.41205837,27.4916044 5.1058381,27.2958946 3.83929882,27.2958946 C2.57243429,27.2958946 1.26621402,27.3743071 0,27.4916044 C0.158073469,24.0893388 0.316797446,20.6870732 0.316797446,17.3240138 L0.316797446,10.5975737 Z" id="Fill-1" fill="#E9FFDD" mask="url(#mask-2)"></path>
                    </g>
                </g>
                <text id=".GLOBAL" font-family="BN5DSEU-Font-Thin-Mono, BN5DSEU Font Thin Mono" font-size="12" font-style="condensed" font-weight="normal" letter-spacing="0.277500004" fill="#E9FFDD">
                    <tspan x="159.055407" y="27">.GLOBA</tspan>
                    <tspan x="208.708689" y="27" letter-spacing="0.237857148">L</tspan>
                </text>
            </g>
        </g>
    </g>
</svg>