<?xml version="1.0" encoding="UTF-8"?>
<svg width="943px" height="177px" viewBox="0 0 943 177" version="1.1" xmlns="http://www.w3.org/2000/svg" xmlns:xlink="http://www.w3.org/1999/xlink">
    <!-- Generator: Sketch 51.1 (57501) - http://www.bohemiancoding.com/sketch -->
    <title>Group 8</title>
    <desc>Created with Sketch.</desc>
    <defs>
        <polygon id="path-1" points="0 0 943 0 943 177 0 177"></polygon>
    </defs>
    <g id="Page-1" stroke="none" stroke-width="1" fill="none" fill-rule="evenodd">
        <g id="Desktop-HD-Copy-3" transform="translate(-80.000000, -28.000000)">
            <g id="Group-8" transform="translate(80.000000, 28.000000)">
                <g id="Group-3">
                    <g>
                        <mask id="mask-2" fill="white">
                            <use xlink:href="#path-1"></use>
                        </mask>
                        <g id="Clip-2"></g>
                        <path d="M936.369315,177 C899.046995,132.748476 854.355453,85.2851978 812.367843,40.2942189 C812.121664,49.4419309 811.631325,64.2736976 811.631325,90.4776366 C811.631325,111.736976 812.612004,163.897015 813.84088,173.786214 C811.138967,173.044727 808.192893,172.549048 805.244801,172.549048 C802.298727,172.549048 799.352652,173.044727 796.160399,173.786214 C798.125794,162.168233 801.318047,98.8818304 801.318047,66.25235 C801.318047,35.1038116 801.318047,11.1243329 800.581529,0 L804.5103,0 C844.534534,43.7558448 898.800816,103.332782 928.757951,133.737803 C928.757951,89.4883104 928.757951,41.2835451 926.792556,3.21378645 C929.49447,3.95527322 932.440544,4.44892057 935.142457,4.44892057 C937.842352,4.44892057 940.298087,3.95527322 943,3.21378645 C941.526963,17.7977137 939.071228,66.7459973 939.071228,86.0266846 C939.071228,111.243329 939.561568,165.875667 939.807747,177 L936.369315,177 Z M697.751433,66.9918053 C697.751433,45.7324657 696.770754,24.2273181 695.788056,3.21378645 C710.520445,3.95527322 725.008673,4.44892057 739.741061,4.44892057 C754.47345,4.44892057 768.961678,3.95527322 783.449906,3.21378645 C782.957548,5.68608615 782.713387,8.15838584 782.713387,10.6306855 C782.713387,13.1009538 782.957548,15.5732535 783.449906,18.0455531 C762.823351,16.5625796 750.790857,14.8317667 718.870346,14.8317667 C718.624167,25.4624522 717.887648,34.1144854 717.887648,46.2281445 C717.887648,59.0812588 718.131809,72.6778914 718.131809,78.8596564 C747.108265,78.8596564 763.31369,77.6224908 777.801918,76.3873567 C777.311578,78.8596564 777.0654,81.577764 777.0654,84.0500637 C777.0654,86.5223634 777.311578,88.9946631 777.801918,91.4669628 C760.859974,89.7361498 729.920142,89.2425025 718.131809,89.2425025 C717.887648,95.1743966 717.887648,101.35413 717.887648,125.085769 C717.887648,143.874841 718.131809,155.986468 718.377988,162.168233 C740.233419,162.168233 769.207857,161.920394 784.676764,158.952415 C784.186424,161.178907 783.940245,164.392694 783.940245,166.617154 C783.940245,168.841614 784.186424,171.561753 784.676764,173.786214 C770.188536,173.044727 755.456147,172.549048 740.47758,172.549048 C725.499012,172.549048 710.766624,173.044727 695.788056,173.786214 C696.770754,152.279035 697.751433,130.771856 697.751433,109.512516 L697.751433,66.9918053 Z M597.37909,66.9918053 C597.37909,45.7324657 596.398411,24.2273181 595.415713,3.21378645 C610.148102,3.95527322 624.63633,4.44892057 639.368718,4.44892057 C654.101107,4.44892057 668.589335,3.95527322 683.075545,3.21378645 C682.585205,5.68608615 682.341044,8.15838584 682.341044,10.6306855 C682.341044,13.1009538 682.585205,15.5732535 683.075545,18.0455531 C662.451008,16.5625796 650.418514,14.8317667 618.495985,14.8317667 C618.251824,25.4624522 617.515305,34.1144854 617.515305,46.2281445 C617.515305,59.0812588 617.759466,72.6778914 617.759466,78.8596564 C646.735922,78.8596564 662.941347,77.6224908 677.429575,76.3873567 C676.939235,78.8596564 676.693056,81.577764 676.693056,84.0500637 C676.693056,86.5223634 676.939235,88.9946631 677.429575,91.4669628 C660.485613,89.7361498 629.547798,89.2425025 617.759466,89.2425025 C617.515305,95.1743966 617.515305,101.35413 617.515305,125.085769 C617.515305,143.874841 617.759466,155.986468 618.005645,162.168233 C639.859058,162.168233 668.835513,161.920394 684.304421,158.952415 C683.814081,161.178907 683.567902,164.392694 683.567902,166.617154 C683.567902,168.841614 683.814081,171.561753 684.304421,173.786214 C669.816193,173.044727 655.083804,172.549048 640.105237,172.549048 C625.126669,172.549048 610.394281,173.044727 595.415713,173.786214 C596.398411,152.279035 597.37909,130.771856 597.37909,109.512516 L597.37909,66.9918053 Z M348.871681,3.21378645 C353.046631,3.95527322 356.973385,4.44892057 361.150353,4.44892057 C365.323285,4.44892057 369.254075,3.95527322 373.424989,3.21378645 C385.94984,53.3972041 396.263118,87.0180422 415.906975,149.560927 L416.397315,149.560927 C425.237555,122.36563 457.160085,28.6762387 463.298412,3.21378645 C465.998307,3.95527322 468.700221,4.44892057 471.402134,4.44892057 C474.102029,4.44892057 476.803942,3.95527322 479.503838,3.21378645 C486.871041,29.9113728 517.810873,123.850635 526.404935,149.560927 L526.895275,149.560927 C534.262478,127.558069 566.18299,24.7209655 570.84828,3.21378645 C573.796372,3.95527322 576.496267,4.44892057 579.442341,4.44892057 C582.388415,4.44892057 585.090329,3.95527322 588.036403,3.21378645 C578.461662,26.4517784 537.945071,147.582275 529.351009,173.786214 C526.651114,173.044727 523.703022,172.549048 521.003126,172.549048 C518.301213,172.549048 515.355139,173.044727 512.653226,173.786214 C498.413195,127.558069 483.678788,81.0841167 467.471344,32.1378645 L466.983023,32.1378645 C459.123462,54.8801777 434.321957,127.558069 419.099228,173.786214 C416.151136,173.044727 413.451241,172.549048 410.507184,172.549048 C407.559092,172.549048 404.855161,173.044727 401.911105,173.786214 C393.807383,146.840788 358.446422,29.4177254 348.871681,3.21378645 Z M269.382161,67.2396447 C269.382161,50.1834177 269.135982,33.1251592 268.645642,16.0689323 C251.703698,16.0689323 229.848267,17.0582584 216.096558,18.7870399 C216.835094,16.3167717 217.325434,13.5966326 217.325434,10.8764935 C217.325434,8.40622525 216.835094,5.93392556 216.096558,3.21378645 C237.21547,3.95527322 258.332365,4.44892057 279.449259,4.44892057 C300.566154,4.44892057 321.683048,3.95527322 342.801961,3.21378645 C342.063425,5.93392556 341.573085,8.40622525 341.573085,11.1243329 C341.573085,13.5966326 342.063425,16.3167717 342.801961,18.7870399 C329.050252,17.0582584 307.194821,16.0689323 290.252876,16.0689323 C289.764555,33.1251592 289.516358,50.1834177 289.516358,67.2396447 L289.516358,109.760355 C289.516358,131.019695 290.499055,152.526874 291.481753,173.786214 C287.306802,173.044727 283.378031,172.549048 279.449259,172.549048 C275.520488,172.549048 271.593734,173.044727 267.416766,173.786214 C268.399463,152.526874 269.382161,131.019695 269.382161,109.760355 L269.382161,67.2396447 Z M121.031184,66.9918053 C121.031184,45.7324657 120.048486,24.2273181 119.067807,3.21378645 C133.800196,3.95527322 148.286405,4.44892057 163.020812,4.44892057 C177.751183,4.44892057 192.239411,3.95527322 206.727638,3.21378645 C206.237299,5.68608615 205.99112,8.15838584 205.99112,10.6306855 C205.99112,13.1009538 206.237299,15.5732535 206.727638,18.0455531 C186.103101,16.5625796 174.06859,14.8317667 142.148078,14.8317667 C141.903917,25.4624522 141.165381,34.1144854 141.165381,46.2281445 C141.165381,59.0812588 141.409542,72.6778914 141.409542,78.8596564 C170.385997,78.8596564 186.593441,77.6224908 201.079651,76.3873567 C200.589311,78.8596564 200.343132,81.577764 200.343132,84.0500637 C200.343132,86.5223634 200.589311,88.9946631 201.079651,91.4669628 C184.135689,89.7361498 153.197874,89.2425025 141.409542,89.2425025 C141.165381,95.1743966 141.165381,101.35413 141.165381,125.085769 C141.165381,143.874841 141.409542,155.986468 141.657739,162.168233 C163.51317,162.168233 192.485589,161.920394 207.954497,158.952415 C207.464157,161.178907 207.217978,164.392694 207.217978,166.617154 C207.217978,168.841614 207.464157,171.561753 207.954497,173.786214 C193.468287,173.044727 178.735898,172.549048 163.757331,172.549048 C148.778763,172.549048 134.046374,173.044727 119.067807,173.786214 C120.048486,152.279035 121.031184,130.771856 121.031184,109.512516 L121.031184,66.9918053 Z M22.0995919,113.467789 C22.0995919,130.030369 23.0802714,146.840788 23.572629,163.403367 C29.7109561,164.144854 38.7953574,164.638502 47.6376156,164.638502 C68.7524924,164.638502 87.1694916,149.806735 87.1694916,123.109149 C87.1694916,94.9285886 65.8084361,88.2531763 33.1514058,88.2531763 L22.0995919,88.2531763 L22.0995919,113.467789 Z M35.3589435,79.1074958 C58.4412328,79.1074958 82.2580228,70.9491099 82.2580228,43.5080054 C82.2580228,16.810419 60.8969672,12.359467 42.2337892,12.359467 C33.8859064,12.359467 28.2399369,12.8551458 23.572629,13.5966326 C23.0802714,29.169886 22.0995919,44.9909789 22.0995919,60.5662638 L22.0995919,79.1074958 L35.3589435,79.1074958 Z M1.96539468,66.9918053 C1.96539468,45.7324657 0.980679481,24.2273181 0,3.21378645 C8.59406155,3.95527322 17.432284,4.44892057 26.0263456,4.44892057 C34.622425,4.44892057 43.4626653,3.21378645 52.0567269,3.21378645 C80.0484671,3.21378645 103.867275,10.8764935 103.867275,38.8112454 C103.867275,63.0385635 87.1694916,76.6351961 62.6141652,82.0734428 L62.6141652,82.5670902 C91.8347816,84.0500637 109.761441,95.9158833 109.761441,124.098475 C109.761441,160.68526 76.1196956,173.786214 47.6376156,173.786214 C39.7800726,173.786214 31.6763508,172.549048 23.8188078,172.549048 C15.959247,172.549048 7.85552515,173.044727 0,173.786214 C0.980679481,152.279035 1.96539468,130.771856 1.96539468,109.512516 L1.96539468,66.9918053 Z" id="Fill-1" fill="#E9FFDD" mask="url(#mask-2)"></path>
                    </g>
                </g>
                <text id=".GLOBAL" font-family="BN5DSEU-Font-Thin-Mono, BN5DSEU Font Thin Mono" font-size="16" font-style="condensed" font-weight="normal" letter-spacing="0.370000005" fill="#E9FFDD">
                    <tspan x="830.565781" y="174">.GLOBA</tspan>
                    <tspan x="896.770156" y="174">L</tspan>
                </text>
            </g>
        </g>
    </g>
</svg>