<?xml version="1.0" encoding="UTF-8"?>
<svg width="163px" height="282px" viewBox="0 0 163 282" version="1.1" xmlns="http://www.w3.org/2000/svg" xmlns:xlink="http://www.w3.org/1999/xlink">
    <!-- Generator: Sketch 51.1 (57501) - http://www.bohemiancoding.com/sketch -->
    <title>Group 3</title>
    <desc>Created with Sketch.</desc>
    <defs>
        <polygon id="path-1" points="0 0 163 0 163 282 0 282"></polygon>
    </defs>
    <g id="Page-1" stroke="none" stroke-width="1" fill="none" fill-rule="evenodd">
        <g id="Desktop-HD-Copy-3" transform="translate(-64.000000, 0.000000)">
            <g id="Group-3" transform="translate(64.000000, 0.000000)">
                <mask id="mask-2" fill="white">
                    <use xlink:href="#path-1"></use>
                </mask>
                <g id="Clip-2"></g>
                <path d="M147.28426,101.010845 C155.991366,104.738445 163,106.146057 163,101.010845 C163,95.8756334 155.991366,97.2832459 147.28426,101.010845 M148.682792,66.441798 C144.788909,62.547344 140.685601,68.8487622 137.118279,78.0097816 C146.277956,74.4419364 152.57845,70.3380269 148.682792,66.441798 M124.929041,96.0282875 L123.871268,96.0140871 C123.819799,99.3316506 123.532284,103.148002 121.785893,106.288061 C120.953518,107.784426 119.943664,108.819279 118.782953,109.365993 C117.735829,109.857681 116.541397,109.955309 115.620283,109.98371 C113.81,110.047612 112.01569,109.859457 110.26575,109.44232 C108.185699,108.943532 105.470275,107.855428 104.339736,105.491065 C103.50736,103.749743 103.707911,101.658738 103.883615,99.8144635 L102.832941,99.7132858 C102.651913,101.596611 102.42829,103.941449 103.386675,105.945477 C104.696468,108.68615 107.717156,109.919808 110.019054,110.470073 C111.63766,110.857033 113.297086,111.052288 114.958287,111.052288 C115.190784,111.052288 115.421507,111.048738 115.654004,111.041638 C116.678056,111.007912 118.009146,110.896084 119.231974,110.322744 C120.596786,109.678402 121.768145,108.494445 122.708782,106.802825 C124.570534,103.456861 124.875798,99.4789795 124.929041,96.0282875 M105.083371,95.5064235 C105.120642,96.0886391 105.239553,96.9335616 105.825232,97.549503 C106.288452,98.0376411 106.898979,98.2417715 107.532578,98.2417715 C108.315259,98.2417715 109.136985,97.9293632 109.76526,97.4554255 C111.406938,96.2128924 112.244638,94.0224839 111.85241,92.000705 L110.814159,92.2048354 C111.131846,93.837879 110.453877,95.6076012 109.126337,96.612278 C108.363178,97.1909435 107.175845,97.4359 106.591941,96.8199586 C106.323948,96.5412761 106.18019,96.1010644 106.137595,95.4389717 C106.032883,93.7864026 106.538697,92.075257 107.525479,90.7457465 L106.67713,90.1138296 C105.541267,91.6421454 104.960911,93.6088979 105.083371,95.5064235 M113.318384,96.649554 C113.384051,98.0926675 113.55443,99.7150608 114.736439,100.682462 C115.299046,101.143974 115.982339,101.341004 116.672731,101.341004 C117.631116,101.341004 118.607249,100.959369 119.295867,100.366503 C120.586137,99.2570986 121.120348,97.5814539 121.409638,96.4152478 C121.881732,94.5248223 122.05921,92.5793704 121.942074,90.6321435 L120.886076,90.6978202 C120.997888,92.5349942 120.829283,94.3739433 120.383811,96.161416 C119.97916,97.7873594 119.413003,98.8701383 118.605475,99.5641818 C117.771325,100.283076 116.3089,100.606135 115.407308,99.8641648 C114.560735,99.1718963 114.43295,97.8725617 114.374382,96.5998527 C114.328238,95.600501 114.274994,94.4680208 114.68142,93.5343459 C115.025729,92.7426748 115.882951,92.0291057 116.717101,92.2119356 L116.937175,91.177083 C115.520895,90.8717749 114.218201,91.9474536 113.712386,93.1118846 C113.208347,94.2709906 113.266915,95.5348243 113.318384,96.649554 M132.148875,93.3941172 C137.116504,96.1702912 142.458614,98.9446903 147.28426,101.010845 C142.396496,103.101851 136.979846,105.922401 131.958973,108.732301 C133.291838,113.714859 134.850101,118.903323 136.555672,123.449219 C133.421398,122.274138 129.980085,121.175383 126.515701,120.165382 C137.086333,174.751638 123.839322,238.058702 92.5125542,282 L88.7926003,279.348079 C119.776834,235.886044 132.688411,173.026292 121.68473,119.205081 L122.506457,119.036451 C122.268635,118.97255 122.029039,118.901548 121.791218,118.839421 C119.003027,123.800679 116.207737,129.147121 114.120588,133.991225 C112.022789,129.127596 109.213301,123.754527 106.412687,118.775519 C101.494752,120.074854 96.3762658,121.594295 91.8683064,123.264614 C93.5330568,118.775519 95.0451754,113.681134 96.3425448,108.782003 C91.2861763,105.954352 85.8216067,103.112501 80.9001219,101.010845 C85.7222186,98.9517905 91.0643279,96.1809415 96.0372814,93.4083175 C94.5606585,88.1169013 92.8355654,82.6000541 90.9720389,77.8589026 C95.8473792,79.7759538 101.542671,81.547451 106.968195,83.0509162 C109.543412,78.6257231 112.104429,73.8987719 114.120588,69.5002046 C116.143845,73.9147474 118.717286,78.661224 121.299601,83.1006175 C126.661233,81.6291032 132.281984,79.8931069 137.118279,78.0097816 C135.284924,82.7154322 133.595327,88.1630526 132.148875,93.3941172 M114.120588,52.1242659 C107.983374,52.1242659 109.783008,60.0409772 114.120588,69.5002046 C118.456393,60.0409772 120.256027,52.1242659 114.120588,52.1242659 M114.120588,149.897425 C119.363309,149.897425 117.913308,142.78481 114.120588,133.991225 C110.327867,142.78481 108.876092,149.897425 114.120588,149.897425 M148.682792,135.579893 C152.920984,131.34108 146.180342,127.063216 136.555672,123.449219 C140.167364,133.075301 144.446375,139.816931 148.682792,135.579893 M79.5566081,135.579893 C83.9119357,139.934084 88.2459659,133.04335 91.8683064,123.264614 C82.0910041,126.889261 75.2012805,131.223927 79.5566081,135.579893 M65.2394003,101.010845 C65.2394003,106.114107 72.2196381,104.718919 80.9001219,101.010845 C72.2196381,97.3027715 65.2394003,95.9075842 65.2394003,101.010845 M79.5566081,66.441798 C75.7514645,70.2492746 81.9348228,74.3052578 90.9720389,77.8589026 C87.4189151,68.8203614 83.3617517,62.6360964 79.5566081,66.441798 M29.6726661,29.6752419 C17.2793275,17.2800861 22.1972627,12.3596548 29.6726661,4.8831553 C22.1972627,12.3596548 16.7433418,16.7440218 4.88421419,4.8831553 C16.7433418,16.7440218 12.3596176,22.2005174 4.88421419,29.6752419 C12.3596176,22.2005174 17.2793275,17.2800861 29.6726661,29.6752419 M66.2847499,59.4214856 C69.2859149,57.3624307 73.4868361,57.1689505 78.5343307,57.1689505 C73.5631519,57.1689505 69.4066005,57.1654004 66.4143094,55.2891754 C67.1898913,52.3922981 69.4012761,49.0232582 73.6501165,44.7737948 C69.5148625,48.9096551 66.2137584,51.1107139 63.3687746,51.939661 C62.0021885,49.3800427 61.2567779,45.5743411 61.2567779,39.8888644 C61.2567779,45.7269952 60.4705472,49.5859482 59.0329697,52.1455665 C55.486945,51.3893963 52.4715816,48.3824661 48.8616646,44.7737948 C52.5283748,48.4392676 55.4354761,51.6237025 56.0637508,55.3104759 C53.0750093,57.1654004 48.9308813,57.1689505 43.9792252,57.1689505 C48.8226193,57.1689505 52.8833322,57.3535554 55.8561007,59.1871794 C55.1035909,62.1124574 52.9791707,65.4477714 48.8616646,69.5658813 C52.893981,65.5329737 56.1773372,63.4117921 59.0595915,62.6183459 C60.472322,65.1779642 61.2567779,68.916214 61.2567779,74.4490366 C61.2567779,68.7990609 62.07318,65.0235351 63.5444786,62.4603667 C67.0496832,63.2342874 70.1289388,66.0441873 73.6501165,69.5658813 C70.0508482,65.9660853 67.0514579,62.95738 66.2847499,59.4214856 M61.2567779,34.5601722 C61.2567779,24.1388691 61.2567779,17.2800861 78.5343307,17.2800861 C61.2567779,17.2800861 61.2567779,10.4213031 61.2567779,0 C61.2567779,10.4213031 60.5113673,17.2800861 43.9792252,17.2800861 C60.5113673,17.2800861 61.2567779,24.1388691 61.2567779,34.5601722 M29.6726661,83.4290013 C17.2793275,95.824157 12.3596176,90.9037257 4.88421419,83.4290013 C12.3596176,90.9037257 16.7433418,96.3602213 4.88421419,108.221088 C16.7433418,96.3602213 22.1972627,100.744588 29.6726661,108.221088 C22.1972627,100.744588 17.2793275,95.824157 29.6726661,83.4290013 M34.5568803,57.1689505 C24.1353302,57.1689505 17.2793275,57.9144704 17.2793275,74.4490366 C17.2793275,57.9144704 10.4215501,57.1689505 0,57.1689505 C10.4215501,57.1689505 17.2793275,57.1689505 17.2793275,39.8888644 C17.2793275,57.1689505 24.1353302,57.1689505 34.5568803,57.1689505" id="Fill-1" fill="#EF503A" mask="url(#mask-2)"></path>
            </g>
        </g>
    </g>
</svg>